<svg viewBox="0 0 16 16"><g fill="#828282"><path d="m2.895 2-1.752 2.057v.5857c0 .7426.6827 1.395 1.302 1.395.7442 0 1.364-.6273 1.364-1.371 0 .7442.5986 1.371 1.343 1.371.7442 0 1.324-.6273 1.324-1.371 0 .7442.6367 1.371 1.381 1.371.7441 0 1.362-.6273 1.362-1.371 0 .7442.6011 1.371 1.345 1.371.7442 0 1.321-.6273 1.321-1.371 0 .7442.6392 1.371 1.383 1.371.7442 0 1.36-.6273 1.36-1.371v-.6095l-1.905-2.057c-3.325-.0088-9.829 0-9.829 0z" fill-rule="evenodd"/><path d="m3.81 5.695c-.07086.1265-.1694.2347-.2715.3362-.2808.2793-.6683.4524-1.093.4524-.1093 0-.3881-.06438-.3881-.06438v7.619h11.73v-7.662c-.1752.06888-.3226.1071-.5214.1071-.4249 0-.8119-.1730-1.093-.4524-.1018-.1015-.1887-.2166-.2595-.3429-.07086.1265-.16.2412-.2619.3429-.2810.2791-.6659.4523-1.091.4523-.4248 0-.8120-.1730-1.093-.4524-.1018-.1015-.1911-.2167-.2619-.3429-.07086.1265-.1573.2412-.2594.3429-.2810.2791-.6682.4523-1.093.4523-.4247 0-.8119-.1730-1.093-.4524-.1019-.1013-.1887-.2167-.2595-.3429-.07086.1265-.1596.2413-.2618.3429-.2811.2795-.6664.4526-1.091.4526-.4247 0-.8119-.1730-1.093-.4524-.1018-.1013-.1790-0.21-.2499-.3362zm1.688 1.408c.5118 0 .8758.3314 1.005.8309h2.829c.1288-.4995.4904-.8309 1.002-.8309.8130 0 1.707.8347 1.986 1.855l.67 2.432c.2791 1.02-.1585 1.855-.9714 1.855-.7137 0-1.49-.6430-1.857-1.49h-4.483c-.3675.8472-1.143 1.49-1.857 1.49-.8131 0-1.251-.8347-.9714-1.855l.6667-2.436c.2790-1.02 1.173-1.855 1.986-1.855z"/><path d="m6.914 9.261-.9553 1.025h.9411v1.056h1.876v-1.056h1.004l-.9554-1.025-.9551-1.025z"/></g></svg>
